<svg width="34" height="36" viewBox="0 0 34 36" fill="none" xmlns="http://www.w3.org/2000/svg">
<g id="apple-signin-logo 3" clip-path="url(#clip0_16_79)">
<path id="Vector" d="M32.17 28.056C31.6303 29.2812 30.9654 30.4474 30.186 31.536C29.146 32.988 28.29 33.992 27.632 34.55C26.612 35.466 25.52 35.934 24.348 35.962C23.508 35.962 22.496 35.728 21.316 35.254C20.132 34.784 19.046 34.55 18.05 34.55C17.008 34.55 15.89 34.784 14.694 35.254C13.494 35.728 12.53 35.974 11.792 35.998C10.67 36.046 9.552 35.564 8.434 34.55C7.722 33.944 6.83 32.904 5.762 31.43C4.616 29.856 3.674 28.032 2.936 25.952C2.146 23.706 1.75 21.532 1.75 19.424C1.75 17.012 2.284 14.93 3.354 13.188C4.194 11.788 5.314 10.682 6.714 9.87001C8.09338 9.06681 9.65789 8.63605 11.254 8.62001C12.148 8.62001 13.316 8.88801 14.768 9.41801C16.218 9.94801 17.148 10.218 17.556 10.218C17.86 10.218 18.894 9.90201 20.646 9.27601C22.302 8.69401 23.7 8.45201 24.846 8.54801C27.948 8.79202 30.28 9.98801 31.83 12.138C29.056 13.778 27.682 16.078 27.71 19.026C27.734 21.324 28.59 23.234 30.266 24.752C31.026 25.458 31.876 26.002 32.822 26.388C32.616 26.968 32.402 27.524 32.17 28.056ZM25.052 0.722014C25.052 2.52201 24.378 4.20201 23.036 5.76001C21.414 7.61001 19.452 8.68001 17.326 8.51001C17.2978 8.28378 17.2838 8.056 17.284 7.82801C17.284 6.09801 18.054 4.24801 19.424 2.73601C20.1578 1.93329 21.0436 1.2841 22.03 0.826014C23.082 0.326014 24.078 0.0500142 25.014 0.00201416C25.042 0.242014 25.054 0.482014 25.054 0.722014H25.052Z" fill="#040404"/>
</g>
<defs>
<clipPath id="clip0_16_79">
<rect width="34" height="36" fill="white"/>
</clipPath>
</defs>
</svg>
