<svg width="35" height="35" viewBox="0 0 35 35" fill="none" xmlns="http://www.w3.org/2000/svg">
<g id="facebook-signin-logo 1" clip-path="url(#clip0_16_94)">
<path id="Vector" d="M0 17.5019C0 12.8606 1.84374 8.40941 5.12563 5.12752C8.40752 1.84564 12.8587 0.00189209 17.5 0.00189209C22.1413 0.00189209 26.5925 1.84564 29.8744 5.12752C33.1563 8.40941 35 12.8606 35 17.5019C35 22.1432 33.1563 26.5944 29.8744 29.8763C26.5925 33.1581 22.1413 35.0019 17.5 35.0019C12.8587 35.0019 8.40752 33.1581 5.12563 29.8763C1.84374 26.5944 0 22.1432 0 17.5019Z" fill="#1877F2"/>
<path id="Vector_2" d="M24.3113 22.5595L25.0891 17.502H20.2338V14.2197C20.2338 12.8372 20.9105 11.4858 23.0844 11.4858H25.2933V7.1789C25.2933 7.1789 23.2905 6.83862 21.3752 6.83862C17.3775 6.83862 14.7641 9.2614 14.7641 13.6461V17.502H10.325V22.5595H14.768V34.79C16.5795 35.0749 18.4243 35.0749 20.2358 34.79V22.5595H24.3113Z" fill="white"/>
</g>
<defs>
<clipPath id="clip0_16_94">
<rect width="35" height="35" fill="white"/>
</clipPath>
</defs>
</svg>
